# Blender v2.81 (sub 16) OBJ File: 'ammo_box.blend'
# www.blender.org
mtllib ammo_box.mtl
o Cube_Cube.001
v -1.000000 -1.000000 1.000000
v -1.000000 1.000000 1.000000
v -1.000000 -1.000000 -1.000000
v -1.000000 1.000000 -1.000000
v 1.000000 -1.000000 1.000000
v 1.000000 1.000000 1.000000
v 1.000000 -1.000000 -1.000000
v 1.000000 1.000000 -1.000000
vt 0.967541 0.014785
vt 0.974372 0.963699
vt 0.026285 0.967945
vt 0.019454 0.019032
vt 0.973780 0.031620
vt 0.981210 0.967725
vt 0.022709 0.961326
vt 0.015278 0.025221
vt 0.975631 0.019910
vt 0.971105 0.971569
vt 0.017770 0.970724
vt 0.022296 0.019065
vt 0.967515 0.024262
vt 0.971643 0.976947
vt 0.028974 0.972262
vt 0.024846 0.019577
vt 0.016219 0.014797
vt 0.972066 0.014797
vt 0.972066 0.970644
vt 0.016219 0.970644
vt 0.021049 0.028458
vt 0.964272 0.028458
vt 0.964272 0.971681
vt 0.021049 0.971681
vn -1.0000 0.0000 0.0000
vn 0.0000 0.0000 -1.0000
vn 1.0000 0.0000 0.0000
vn 0.0000 0.0000 1.0000
vn 0.0000 -1.0000 0.0000
vn 0.0000 1.0000 0.0000
usemtl ammo_Pickup
s off
f 1/1/1 2/2/1 4/3/1 3/4/1
f 3/5/2 4/6/2 8/7/2 7/8/2
f 7/9/3 8/10/3 6/11/3 5/12/3
f 5/13/4 6/14/4 2/15/4 1/16/4
f 3/17/5 7/18/5 5/19/5 1/20/5
f 8/21/6 4/22/6 2/23/6 6/24/6
