# Blender v2.81 (sub 16) OBJ File: 'ammo_box.blend'
# www.blender.org
mtllib ammo_box.mtl
o Cube_Cube.001
v -1.000000 -1.000000 1.000000
v -1.000000 1.000000 1.000000
v -1.000000 -1.000000 -1.000000
v -1.000000 1.000000 -1.000000
v 1.000000 -1.000000 1.000000
v 1.000000 1.000000 1.000000
v 1.000000 -1.000000 -1.000000
v 1.000000 1.000000 -1.000000
vt 0.991667 -0.009645
vt 0.998848 0.987912
vt 0.002159 0.992376
vt -0.005022 -0.005181
vt 0.998478 0.010875
vt 0.999734 0.995385
vt 0.001099 0.988986
vt -0.000158 0.004476
vt 0.994708 0.000974
vt 0.990001 0.990538
vt -0.001306 0.989660
vt 0.003400 0.000096
vt 0.991381 0.000156
vt 0.995719 1.001292
vt 0.005108 0.996368
vt 0.000770 -0.004768
vt -0.002736 -0.004159
vt 0.991022 -0.004159
vt 0.991022 0.989600
vt -0.002736 0.989600
vt 0.009066 0.016475
vt 0.976255 0.016475
vt 0.976255 0.983664
vt 0.009066 0.983664
vn -1.0000 0.0000 0.0000
vn 0.0000 0.0000 -1.0000
vn 1.0000 0.0000 0.0000
vn 0.0000 0.0000 1.0000
vn 0.0000 -1.0000 0.0000
vn 0.0000 1.0000 0.0000
usemtl ammo_Pickup
s off
f 1/1/1 2/2/1 4/3/1 3/4/1
f 3/5/2 4/6/2 8/7/2 7/8/2
f 7/9/3 8/10/3 6/11/3 5/12/3
f 5/13/4 6/14/4 2/15/4 1/16/4
f 3/17/5 7/18/5 5/19/5 1/20/5
f 8/21/6 4/22/6 2/23/6 6/24/6
