# Blender v2.81 (sub 16) OBJ File: 'defense_box.blend'
# www.blender.org
mtllib defense_box.mtl
o Cube_Cube.001
v -1.000000 -1.000000 1.000000
v -1.000000 1.000000 1.000000
v -1.000000 -1.000000 -1.000000
v -1.000000 1.000000 -1.000000
v 1.000000 -1.000000 1.000000
v 1.000000 1.000000 1.000000
v 1.000000 -1.000000 -1.000000
v 1.000000 1.000000 -1.000000
vt 0.014498 0.017965
vt 0.985502 0.017965
vt 0.985502 0.988969
vt 0.014498 0.988969
vt 0.017010 0.020240
vt 0.976392 0.020240
vt 0.976392 0.979622
vt 0.017010 0.979622
vt 0.019383 0.030100
vt 0.974019 0.030100
vt 0.974019 0.984736
vt 0.019383 0.984736
vt 0.011139 0.010971
vt 0.982263 0.010971
vt 0.982263 0.982095
vt 0.011139 0.982095
vt -0.002736 -0.004159
vt 0.991022 -0.004159
vt 0.991022 0.989600
vt -0.002736 0.989600
vt 0.009066 0.016475
vt 0.976255 0.016475
vt 0.976255 0.983664
vt 0.009066 0.983664
vn -1.0000 0.0000 0.0000
vn 0.0000 0.0000 -1.0000
vn 1.0000 0.0000 0.0000
vn 0.0000 0.0000 1.0000
vn 0.0000 -1.0000 0.0000
vn 0.0000 1.0000 0.0000
usemtl DefensePickup
s off
f 1/1/1 2/2/1 4/3/1 3/4/1
f 3/5/2 4/6/2 8/7/2 7/8/2
f 7/9/3 8/10/3 6/11/3 5/12/3
f 5/13/4 6/14/4 2/15/4 1/16/4
f 3/17/5 7/18/5 5/19/5 1/20/5
f 8/21/6 4/22/6 2/23/6 6/24/6
