# Blender v2.81 (sub 16) OBJ File: 'track2floor.blend'
# www.blender.org
mtllib track2floor.mtl
o RoadSegment_Cube
v -5.770439 0.277547 -1.032150
v -5.764133 0.268120 -1.853045
v -4.188428 0.277912 -1.355552
v -4.208162 0.269319 -1.818831
v -5.757114 0.260036 -2.347849
v -4.200795 0.262113 -2.338562
v -5.755953 0.277136 -2.853230
v -4.199621 0.280148 -2.846786
v -5.705052 0.325620 -3.538814
v -4.192863 0.303662 -3.171364
v -5.258415 0.366583 -4.328835
v -4.149773 0.307153 -3.238146
v -4.600545 0.368739 -4.769096
v -3.963643 0.307184 -3.350369
v -3.981047 0.355015 -4.969538
v -3.615134 0.299546 -3.457834
v -3.396742 0.337374 -5.075538
v -3.198262 0.287382 -3.532707
v -2.836726 0.319380 -5.126880
v -2.744507 0.273263 -3.573951
v -2.294834 0.304818 -5.145559
v -2.269435 0.261105 -3.590032
v -1.768421 0.298909 -5.147402
v -1.778475 0.256344 -3.591668
v -1.249532 0.298565 -5.140330
v -1.278233 0.256693 -3.584810
v -0.735388 0.298275 -5.129082
v -0.773103 0.256986 -3.573738
v -0.223599 0.298014 -5.115824
v -0.265688 0.257250 -3.560579
v 0.286901 0.297771 -5.101606
v 0.242978 0.257496 -3.546399
v 0.796655 0.297539 -5.087098
v 0.752380 0.257731 -3.531888
v 1.305712 0.297314 -5.072737
v 1.262496 0.257958 -3.517487
v 1.813885 0.297092 -5.058919
v 1.773533 0.258183 -3.503581
v 2.315263 0.296873 -5.046415
v 2.291496 0.258404 -3.490724
v 2.811691 0.296694 -5.044059
v 2.814742 0.258585 -3.488181
v 3.315308 0.296555 -5.049135
v 3.330696 0.258726 -3.493323
v 3.824144 0.296434 -5.055546
v 3.841362 0.258848 -3.499748
v 4.336325 0.296325 -5.061530
v 4.348651 0.258958 -3.505679
v 4.850895 0.296223 -5.064289
v 4.853580 0.259061 -3.508387
v 5.366596 0.296125 -5.064677
v 5.357366 0.259161 -3.508795
v 5.884451 0.296030 -5.058708
v 5.858917 0.259256 -3.503004
v 6.403176 0.295936 -5.049599
v 6.359459 0.259351 -3.494295
v 6.924691 0.295843 -5.030088
v 6.856669 0.259445 -3.475653
v 7.447491 0.295750 -5.005660
v 7.352067 0.259540 -3.452662
v 7.974066 0.295654 -4.966979
v 7.842123 0.259636 -3.416651
v 8.503798 0.295556 -4.917546
v 8.327008 0.259735 -3.371687
v 9.039271 0.295453 -4.848526
v 8.802389 0.259840 -3.310723
v 9.584393 0.295343 -4.752132
v 9.260078 0.259951 -3.230361
v 10.143084 0.295223 -4.618710
v 9.691574 0.260072 -3.129709
v 10.729200 0.295086 -4.411121
v 10.065578 0.260211 -3.003780
v 11.363026 0.294919 -4.021534
v 10.303451 0.260380 -2.882092
v 11.821270 0.294710 -3.322897
v 10.373202 0.260591 -2.753548
v 11.965607 0.294490 -2.618100
v 10.416792 0.260813 -2.468915
v 11.983509 0.294171 -1.987618
v 10.430471 0.261136 -2.083572
v 11.758918 0.293588 -1.169641
v 10.406898 0.261725 -1.939867
v 11.513650 0.292784 -0.832214
v 10.081474 0.262537 -1.440637
v 11.479016 0.292266 -0.616143
v 9.923726 0.263061 -0.665543
v 11.508787 0.291718 -0.354504
v 10.014341 0.263614 0.079157
v 11.662394 0.291140 0.022196
v 10.238254 0.264198 0.649348
v 11.884065 0.290604 0.567846
v 10.402998 0.264739 1.045333
v 11.912977 0.290081 1.595498
v 10.477781 0.265268 0.993986
v 11.144453 0.289581 2.304863
v 10.486744 0.265772 0.894519
v 10.529169 0.289204 2.510832
v 10.137654 0.266153 1.004710
v 10.016891 0.288877 2.631775
v 9.657740 0.266483 1.117599
v 9.566505 0.288558 2.747390
v 9.120753 0.266805 1.256400
v 9.151031 0.288225 2.893687
v 8.575023 0.267142 1.448007
v 8.599287 0.287878 3.093200
v 8.170977 0.267492 1.597088
v 8.010579 0.287549 3.219134
v 7.764609 0.267824 1.682472
v 7.451367 0.287238 3.286540
v 7.312407 0.268138 1.736525
v 6.920995 0.286946 3.323596
v 6.825949 0.268433 1.770262
v 6.410396 0.286666 3.352504
v 6.318628 0.268715 1.798967
v 5.916928 0.286397 3.384651
v 5.794584 0.268987 1.833217
v 5.430350 0.286136 3.431155
v 5.266125 0.269250 1.883588
v 4.898061 0.285873 3.487279
v 4.784916 0.269516 1.935136
v 4.306498 0.285572 3.500142
v 4.358861 0.269819 1.944755
v 3.710811 0.285232 3.445059
v 3.941505 0.270162 1.905978
v 3.149031 0.284866 3.333946
v 3.504256 0.270531 1.818746
v 2.646470 0.284503 3.208432
v 3.017768 0.270898 1.697084
v 2.181514 0.284164 3.102345
v 2.488567 0.271239 1.576641
v 1.673131 0.283858 3.012741
v 1.993140 0.271548 1.489697
v 0.938368 0.283500 2.733588
v 1.786016 0.271910 1.428376
v 0.331546 0.283031 2.039087
v 1.742503 0.272383 1.382350
v 0.142374 0.282529 1.451502
v 1.631373 0.272889 0.998724
v 0.103224 0.282000 1.335415
v 1.204704 0.273423 0.235920
v 0.017800 0.281636 1.323210
v 0.398793 0.273790 -0.185764
v -0.295774 0.281460 1.278944
v -0.292457 0.273968 -0.277383
v -0.567504 0.281255 1.313552
v -1.021586 0.274174 -0.175065
v -0.809257 0.281031 1.431736
v -1.691181 0.274400 0.149400
v -1.051728 0.280805 1.662359
v -2.195238 0.274628 0.606628
v -1.298305 0.280581 1.976102
v -2.579328 0.274854 1.092268
v -1.548222 0.280354 2.375527
v -2.871614 0.275082 1.556488
v -1.837291 0.280112 2.837868
v -3.121594 0.275327 1.958799
v -2.265127 0.279832 3.373670
v -3.314599 0.275608 2.224405
v -3.257208 0.279481 3.764916
v -3.204422 0.275962 2.209467
v -4.197826 0.279157 3.341986
v -3.120114 0.276289 2.219156
v -4.620890 0.278919 2.776673
v -3.292590 0.276528 1.965602
v -4.897305 0.278720 2.240747
v -3.480513 0.276729 1.596610
v -5.109295 0.278541 1.716494
v -3.649678 0.276910 1.176369
v -5.285206 0.278371 1.194596
v -3.798986 0.277081 0.732681
v -5.434660 0.278203 0.671309
v -3.929331 0.277250 0.276084
v -5.561515 0.278033 0.143604
v -4.040701 0.277422 -0.187073
v -5.665554 0.277851 -0.393436
v -4.130571 0.277605 -0.650433
v -5.764493 0.277651 -1.237718
v -4.194275 0.277807 -1.415726
vt 1.000763 0.995838
vt 0.992405 0.000495
vt 0.562643 -0.007953
vt 0.571001 0.987390
vt 1.000763 0.995838
vt 0.992405 0.000495
vt 0.562643 -0.007953
vt 0.571001 0.987390
vt 1.000763 0.995838
vt 0.992405 0.000495
vt 0.562643 -0.007953
vt 0.571001 0.987390
vt 1.000763 0.995838
vt 0.992405 0.000495
vt 0.562643 -0.007953
vt 0.571001 0.987390
vt 1.000763 0.995838
vt 0.992405 0.000495
vt 0.562643 -0.007953
vt 0.571001 0.987390
vt 1.000763 0.995838
vt 0.992405 0.000495
vt 0.562643 -0.007953
vt 0.571001 0.987390
vt 1.000763 0.995838
vt 0.992405 0.000495
vt 0.562643 -0.007953
vt 0.571001 0.987390
vt 1.000763 0.995838
vt 0.992405 0.000495
vt 0.562643 -0.007953
vt 0.571001 0.987390
vt 1.000763 0.995838
vt 0.992405 0.000495
vt 0.562643 -0.007953
vt 0.571001 0.987390
vt 1.000763 0.995838
vt 0.992405 0.000495
vt 0.562643 -0.007953
vt 0.571001 0.987390
vt 1.000763 0.995838
vt 0.992405 0.000495
vt 0.562643 -0.007953
vt 0.571001 0.987390
vt 1.000763 0.995838
vt 0.992405 0.000495
vt 0.562643 -0.007953
vt 0.571001 0.987390
vt 1.000763 0.995838
vt 0.992405 0.000495
vt 0.562643 -0.007953
vt 0.571001 0.987390
vt 1.000763 0.995838
vt 0.992405 0.000495
vt 0.562643 -0.007953
vt 0.571001 0.987390
vt 1.000763 0.995838
vt 0.992405 0.000495
vt 0.562643 -0.007953
vt 0.571001 0.987390
vt 1.000763 0.995838
vt 0.992405 0.000495
vt 0.562643 -0.007953
vt 0.571001 0.987390
vt 1.000763 0.995838
vt 0.992405 0.000495
vt 0.562643 -0.007953
vt 0.571001 0.987390
vt 1.000763 0.995838
vt 0.992405 0.000495
vt 0.562643 -0.007953
vt 0.571001 0.987390
vt 1.000763 0.995838
vt 0.992405 0.000495
vt 0.562643 -0.007953
vt 0.571001 0.987390
vt 1.000763 0.995838
vt 0.992405 0.000495
vt 0.562643 -0.007953
vt 0.571001 0.987390
vt 1.000763 0.995838
vt 0.992405 0.000495
vt 0.562643 -0.007953
vt 0.571001 0.987390
vt 1.000763 0.995838
vt 0.992405 0.000495
vt 0.562643 -0.007953
vt 0.571001 0.987390
vt 1.000763 0.995838
vt 0.992405 0.000495
vt 0.562643 -0.007953
vt 0.571001 0.987390
vt 1.000763 0.995838
vt 0.992405 0.000495
vt 0.562643 -0.007953
vt 0.571001 0.987390
vt 1.000763 0.995838
vt 0.992405 0.000495
vt 0.562643 -0.007953
vt 0.571001 0.987390
vt 1.000763 0.995838
vt 0.992405 0.000495
vt 0.562643 -0.007953
vt 0.571001 0.987390
vt 1.000763 0.995838
vt 0.992405 0.000495
vt 0.562643 -0.007953
vt 0.571001 0.987390
vt 1.000763 0.995838
vt 0.992405 0.000495
vt 0.562643 -0.007953
vt 0.571001 0.987390
vt 1.000763 0.995838
vt 0.992405 0.000495
vt 0.562643 -0.007953
vt 0.571001 0.987390
vt 1.000763 0.995838
vt 0.992405 0.000495
vt 0.562643 -0.007953
vt 0.571001 0.987390
vt 1.000763 0.995838
vt 0.992405 0.000495
vt 0.562643 -0.007953
vt 0.571001 0.987390
vt 1.000763 0.995838
vt 0.992405 0.000495
vt 0.562643 -0.007953
vt 0.571001 0.987390
vt 1.000763 0.995838
vt 0.992405 0.000495
vt 0.562643 -0.007953
vt 0.571001 0.987390
vt 1.000763 0.995838
vt 0.992405 0.000495
vt 0.562643 -0.007953
vt 0.571001 0.987390
vt 1.000763 0.995838
vt 0.992405 0.000495
vt 0.562643 -0.007953
vt 0.571001 0.987390
vt 1.000763 0.995838
vt 0.992405 0.000495
vt 0.562643 -0.007953
vt 0.571001 0.987390
vt 1.000763 0.995838
vt 0.992405 0.000495
vt 0.562643 -0.007953
vt 0.571001 0.987390
vt 1.000763 0.995838
vt 0.992405 0.000495
vt 0.562643 -0.007953
vt 0.571001 0.987390
vt 1.000763 0.995838
vt 0.992405 0.000495
vt 0.562643 -0.007953
vt 0.571001 0.987390
vt 1.000763 0.995838
vt 0.992405 0.000495
vt 0.562643 -0.007953
vt 0.571001 0.987390
vt 1.000763 0.995838
vt 0.992405 0.000495
vt 0.562643 -0.007953
vt 0.571001 0.987390
vt 1.000763 0.995838
vt 0.992405 0.000495
vt 0.562643 -0.007953
vt 0.571001 0.987390
vt 1.000763 0.995838
vt 0.992405 0.000495
vt 0.562643 -0.007953
vt 0.571001 0.987390
vt 1.000763 0.995838
vt 0.992405 0.000495
vt 0.562643 -0.007953
vt 0.571001 0.987390
vt 1.000763 0.995838
vt 0.992405 0.000495
vt 0.562643 -0.007953
vt 0.571001 0.987390
vt 1.000763 0.995838
vt 0.992405 0.000495
vt 0.562643 -0.007953
vt 0.571001 0.987390
vt 1.000763 0.995838
vt 0.992405 0.000495
vt 0.562643 -0.007953
vt 0.571001 0.987390
vt 1.000763 0.995838
vt 0.992405 0.000495
vt 0.562643 -0.007953
vt 0.571001 0.987390
vt 1.000763 0.995838
vt 0.992405 0.000495
vt 0.562643 -0.007953
vt 0.571001 0.987390
vt 1.000763 0.995838
vt 0.992405 0.000495
vt 0.562643 -0.007953
vt 0.571001 0.987390
vt 1.000763 0.995838
vt 0.992405 0.000495
vt 0.562643 -0.007953
vt 0.571001 0.987390
vt 1.000763 0.995838
vt 0.992405 0.000495
vt 0.562643 -0.007953
vt 0.571001 0.987390
vt 1.000763 0.995838
vt 0.992405 0.000495
vt 0.562643 -0.007953
vt 0.571001 0.987390
vt 1.000763 0.995838
vt 0.992405 0.000495
vt 0.562643 -0.007953
vt 0.571001 0.987390
vt 1.000763 0.995838
vt 0.992405 0.000495
vt 0.562643 -0.007953
vt 0.571001 0.987390
vt 1.000763 0.995838
vt 0.992405 0.000495
vt 0.562643 -0.007953
vt 0.571001 0.987390
vt 1.000763 0.995838
vt 0.992405 0.000495
vt 0.562643 -0.007953
vt 0.571001 0.987390
vt 1.000763 0.995838
vt 0.992405 0.000495
vt 0.562643 -0.007953
vt 0.571001 0.987390
vt 1.000763 0.995838
vt 0.992405 0.000495
vt 0.562643 -0.007953
vt 0.571001 0.987390
vt 1.000763 0.995838
vt 0.992405 0.000495
vt 0.562643 -0.007953
vt 0.571001 0.987390
vt 1.000763 0.995838
vt 0.992405 0.000495
vt 0.562643 -0.007953
vt 0.571001 0.987390
vt 1.000763 0.995838
vt 0.992405 0.000495
vt 0.562643 -0.007953
vt 0.571001 0.987390
vt 1.000763 0.995838
vt 0.992405 0.000495
vt 0.562643 -0.007953
vt 0.571001 0.987390
vt 0.999352 1.000071
vt 0.992405 0.000495
vt 0.487859 -0.003720
vt 0.494805 0.995856
vt 1.000763 0.995838
vt 0.992405 0.000495
vt 0.562643 -0.007953
vt 0.571001 0.987390
vt 1.000763 0.995838
vt 0.992405 0.000495
vt 0.212710 -0.006542
vt 0.221067 0.988801
vt 1.000763 0.995838
vt 0.992405 0.000495
vt 0.562643 -0.007953
vt 0.571001 0.987390
vt 1.000763 0.995838
vt 0.992405 0.000495
vt 0.562643 -0.007953
vt 0.571001 0.987390
vt 1.000763 0.995838
vt 0.992405 0.000495
vt 0.562643 -0.007953
vt 0.571001 0.987390
vt 1.000763 0.995838
vt 0.992405 0.000495
vt 0.562643 -0.007953
vt 0.571001 0.987390
vt 1.000763 0.995838
vt 0.992405 0.000495
vt 0.562643 -0.007953
vt 0.571001 0.987390
vt 1.000763 0.995838
vt 0.992405 0.000495
vt 0.562643 -0.007953
vt 0.571001 0.987390
vt 1.000763 0.995838
vt 0.992405 0.000495
vt 0.562643 -0.007953
vt 0.571001 0.987390
vt 1.000763 0.995838
vt 0.992405 0.000495
vt 0.562643 -0.007953
vt 0.571001 0.987390
vt 1.000763 0.995838
vt 0.992405 0.000495
vt 0.562643 -0.007953
vt 0.571001 0.987390
vt 1.000763 0.995838
vt 0.992405 0.000495
vt 0.562643 -0.007953
vt 0.571001 0.987390
vt 1.000763 0.995838
vt 0.992405 0.000495
vt 0.562643 -0.007953
vt 0.571001 0.987390
vt 1.000763 0.995838
vt 0.992405 0.000495
vt 0.562643 -0.007953
vt 0.571001 0.987390
vt 1.000763 0.995838
vt 0.992405 0.000495
vt 0.562643 -0.007953
vt 0.571001 0.987390
vt 1.000763 0.995838
vt 0.992405 0.000495
vt 0.562643 -0.007953
vt 0.571001 0.987390
vt 1.000763 0.995838
vt 0.992405 0.000495
vt 0.562643 -0.007953
vt 0.571001 0.987390
vt 1.000763 0.995838
vt 0.992405 0.000495
vt 0.562643 -0.007953
vt 0.571001 0.987390
vt 1.000763 0.995838
vt 0.992405 0.000495
vt 0.562643 -0.007953
vt 0.571001 0.987390
vt 1.000763 0.995838
vt 0.992405 0.000495
vt 0.562643 -0.007953
vt 0.571001 0.987390
vt 1.000763 0.995838
vt 0.992405 0.000495
vt 0.562643 -0.007953
vt 0.571001 0.987390
vt 1.000763 0.995838
vt 0.992405 0.000495
vt 0.562643 -0.007953
vt 0.571001 0.987390
vt 1.000763 0.995838
vt 0.992405 0.000495
vt 0.562643 -0.007953
vt 0.571001 0.987390
vt 1.000763 0.995838
vt 0.992405 0.000495
vt 0.562643 -0.007953
vt 0.571001 0.987390
vn -0.0018 0.9999 -0.0140
vn -0.0008 0.9999 -0.0151
vn -0.0018 0.9994 0.0346
vn -0.0025 0.9975 0.0710
vn 0.0017 0.9986 0.0528
vn 0.0199 0.9992 0.0343
vn 0.0313 0.9991 0.0292
vn 0.0348 0.9990 0.0281
vn 0.0342 0.9990 0.0278
vn 0.0272 0.9992 0.0278
vn 0.0106 0.9996 0.0277
vn -0.0004 0.9996 0.0271
vn -0.0006 0.9996 0.0267
vn -0.0007 0.9997 0.0264
vn -0.0007 0.9997 0.0260
vn -0.0007 0.9997 0.0257
vn -0.0007 0.9997 0.0254
vn -0.0007 0.9997 0.0251
vn -0.0006 0.9997 0.0249
vn -0.0001 0.9997 0.0246
vn 0.0002 0.9997 0.0244
vn 0.0003 0.9997 0.0242
vn 0.0003 0.9997 0.0241
vn 0.0001 0.9997 0.0239
vn 0.0000 0.9997 0.0238
vn -0.0003 0.9997 0.0237
vn -0.0004 0.9997 0.0236
vn -0.0009 0.9997 0.0234
vn -0.0011 0.9997 0.0233
vn -0.0017 0.9997 0.0231
vn -0.0021 0.9997 0.0230
vn -0.0029 0.9997 0.0228
vn -0.0040 0.9997 0.0225
vn -0.0052 0.9997 0.0221
vn -0.0074 0.9997 0.0213
vn -0.0114 0.9997 0.0195
vn -0.0191 0.9997 0.0122
vn -0.0216 0.9998 0.0041
vn -0.0215 0.9998 0.0007
vn -0.0207 0.9998 -0.0054
vn -0.0167 0.9998 -0.0114
vn -0.0191 0.9998 -0.0037
vn -0.0185 0.9998 0.0022
vn -0.0165 0.9998 0.0066
vn -0.0157 0.9999 0.0064
vn -0.0175 0.9998 0.0018
vn -0.0106 0.9999 -0.0132
vn -0.0047 0.9999 -0.0144
vn -0.0033 0.9999 -0.0142
vn -0.0035 0.9999 -0.0137
vn -0.0046 0.9999 -0.0130
vn -0.0046 0.9999 -0.0125
vn -0.0027 0.9999 -0.0126
vn -0.0015 0.9999 -0.0124
vn -0.0008 0.9999 -0.0121
vn -0.0007 0.9999 -0.0117
vn -0.0007 0.9999 -0.0113
vn -0.0010 0.9999 -0.0110
vn -0.0011 0.9999 -0.0106
vn -0.0002 0.9999 -0.0103
vn 0.0009 1.0000 -0.0099
vn 0.0018 1.0000 -0.0093
vn 0.0022 1.0000 -0.0087
vn 0.0019 1.0000 -0.0083
vn 0.0014 1.0000 -0.0080
vn 0.0027 1.0000 -0.0074
vn 0.0056 1.0000 -0.0049
vn 0.0063 1.0000 -0.0019
vn 0.0053 1.0000 -0.0028
vn 0.0024 1.0000 -0.0049
vn 0.0007 1.0000 -0.0049
vn -0.0006 1.0000 -0.0047
vn -0.0019 1.0000 -0.0040
vn -0.0028 1.0000 -0.0030
vn -0.0030 1.0000 -0.0024
vn -0.0030 1.0000 -0.0019
vn -0.0027 1.0000 -0.0017
vn -0.0023 1.0000 -0.0018
vn -0.0011 1.0000 -0.0025
vn 0.0010 1.0000 -0.0020
vn 0.0014 1.0000 -0.0010
vn 0.0013 1.0000 -0.0006
vn 0.0011 1.0000 -0.0004
vn 0.0009 1.0000 -0.0003
vn 0.0007 1.0000 -0.0002
vn 0.0005 1.0000 -0.0001
vn 0.0003 1.0000 -0.0001
vn 0.0000 1.0000 -0.0000
usemtl Floor
s off
f 1/1/1 3/2/1 4/3/1 2/4/1
f 2/5/2 4/6/2 6/7/2 5/8/2
f 5/9/3 6/10/3 8/11/3 7/12/3
f 7/13/4 8/14/4 10/15/4 9/16/4
f 9/17/5 10/18/5 12/19/5 11/20/5
f 11/21/6 12/22/6 14/23/6 13/24/6
f 13/25/7 14/26/7 16/27/7 15/28/7
f 15/29/8 16/30/8 18/31/8 17/32/8
f 17/33/9 18/34/9 20/35/9 19/36/9
f 19/37/10 20/38/10 22/39/10 21/40/10
f 21/41/11 22/42/11 24/43/11 23/44/11
f 23/45/12 24/46/12 26/47/12 25/48/12
f 25/49/13 26/50/13 28/51/13 27/52/13
f 27/53/14 28/54/14 30/55/14 29/56/14
f 29/57/15 30/58/15 32/59/15 31/60/15
f 31/61/16 32/62/16 34/63/16 33/64/16
f 33/65/17 34/66/17 36/67/17 35/68/17
f 35/69/18 36/70/18 38/71/18 37/72/18
f 37/73/19 38/74/19 40/75/19 39/76/19
f 39/77/20 40/78/20 42/79/20 41/80/20
f 41/81/21 42/82/21 44/83/21 43/84/21
f 43/85/22 44/86/22 46/87/22 45/88/22
f 45/89/23 46/90/23 48/91/23 47/92/23
f 47/93/24 48/94/24 50/95/24 49/96/24
f 49/97/25 50/98/25 52/99/25 51/100/25
f 51/101/26 52/102/26 54/103/26 53/104/26
f 53/105/27 54/106/27 56/107/27 55/108/27
f 55/109/28 56/110/28 58/111/28 57/112/28
f 57/113/29 58/114/29 60/115/29 59/116/29
f 59/117/30 60/118/30 62/119/30 61/120/30
f 61/121/31 62/122/31 64/123/31 63/124/31
f 63/125/32 64/126/32 66/127/32 65/128/32
f 65/129/33 66/130/33 68/131/33 67/132/33
f 67/133/34 68/134/34 70/135/34 69/136/34
f 69/137/35 70/138/35 72/139/35 71/140/35
f 71/141/36 72/142/36 74/143/36 73/144/36
f 73/145/37 74/146/37 76/147/37 75/148/37
f 75/149/38 76/150/38 78/151/38 77/152/38
f 77/153/39 78/154/39 80/155/39 79/156/39
f 79/157/40 80/158/40 82/159/40 81/160/40
f 81/161/41 82/162/41 84/163/41 83/164/41
f 83/165/42 84/166/42 86/167/42 85/168/42
f 85/169/43 86/170/43 88/171/43 87/172/43
f 87/173/44 88/174/44 90/175/44 89/176/44
f 89/177/45 90/178/45 92/179/45 91/180/45
f 91/181/46 92/182/46 94/183/46 93/184/46
f 93/185/47 94/186/47 96/187/47 95/188/47
f 95/189/48 96/190/48 98/191/48 97/192/48
f 97/193/49 98/194/49 100/195/49 99/196/49
f 99/197/50 100/198/50 102/199/50 101/200/50
f 101/201/51 102/202/51 104/203/51 103/204/51
f 103/205/52 104/206/52 106/207/52 105/208/52
f 105/209/53 106/210/53 108/211/53 107/212/53
f 107/213/54 108/214/54 110/215/54 109/216/54
f 109/217/55 110/218/55 112/219/55 111/220/55
f 111/221/56 112/222/56 114/223/56 113/224/56
f 113/225/57 114/226/57 116/227/57 115/228/57
f 115/229/58 116/230/58 118/231/58 117/232/58
f 117/233/59 118/234/59 120/235/59 119/236/59
f 119/237/60 120/238/60 122/239/60 121/240/60
f 121/241/61 122/242/61 124/243/61 123/244/61
f 123/245/62 124/246/62 126/247/62 125/248/62
f 125/249/63 126/250/63 128/251/63 127/252/63
f 127/253/64 128/254/64 130/255/64 129/256/64
f 129/257/65 130/258/65 132/259/65 131/260/65
f 131/261/66 132/262/66 134/263/66 133/264/66
f 133/265/67 134/266/67 136/267/67 135/268/67
f 135/269/68 136/270/68 138/271/68 137/272/68
f 137/273/69 138/274/69 140/275/69 139/276/69
f 139/277/70 140/278/70 142/279/70 141/280/70
f 141/281/71 142/282/71 144/283/71 143/284/71
f 143/285/72 144/286/72 146/287/72 145/288/72
f 145/289/73 146/290/73 148/291/73 147/292/73
f 147/293/74 148/294/74 150/295/74 149/296/74
f 149/297/75 150/298/75 152/299/75 151/300/75
f 151/301/76 152/302/76 154/303/76 153/304/76
f 153/305/77 154/306/77 156/307/77 155/308/77
f 155/309/78 156/310/78 158/311/78 157/312/78
f 157/313/79 158/314/79 160/315/79 159/316/79
f 159/317/80 160/318/80 162/319/80 161/320/80
f 161/321/81 162/322/81 164/323/81 163/324/81
f 163/325/82 164/326/82 166/327/82 165/328/82
f 165/329/83 166/330/83 168/331/83 167/332/83
f 167/333/84 168/334/84 170/335/84 169/336/84
f 169/337/85 170/338/85 172/339/85 171/340/85
f 171/341/86 172/342/86 174/343/86 173/344/86
f 173/345/87 174/346/87 176/347/87 175/348/87
f 175/349/88 176/350/88 178/351/88 177/352/88
